<?xml version="1.0" encoding="UTF-8" standalone="no"?>
<svg
   height="24"
   viewBox="0 0 24 24"
   width="24"
   version="1.1"
   id="svg236"
   sodipodi:docname="dice_icon_214818.svg"
   inkscape:version="1.2.2 (732a01da63, 2022-12-09)"
   xmlns:inkscape="http://www.inkscape.org/namespaces/inkscape"
   xmlns:sodipodi="http://sodipodi.sourceforge.net/DTD/sodipodi-0.dtd"
   xmlns="http://www.w3.org/2000/svg"
   xmlns:svg="http://www.w3.org/2000/svg">
  <defs
     id="defs240" />
  <sodipodi:namedview
     id="namedview238"
     pagecolor="#ffffff"
     bordercolor="#000000"
     borderopacity="0.25"
     inkscape:showpageshadow="2"
     inkscape:pageopacity="0.0"
     inkscape:pagecheckerboard="0"
     inkscape:deskcolor="#d1d1d1"
     showgrid="false"
     inkscape:zoom="34.541667"
     inkscape:cx="12.014475"
     inkscape:cy="12.014475"
     inkscape:window-width="1920"
     inkscape:window-height="1009"
     inkscape:window-x="1272"
     inkscape:window-y="340"
     inkscape:window-maximized="1"
     inkscape:current-layer="svg236" />
  <rect
     style="fill:#ffffff;fill-opacity:0.99607843;stroke:#ffffff;stroke-width:0;stroke-linejoin:round"
     id="rect1745"
     width="13.548854"
     height="12.998794"
     x="5.2110977"
     y="5.9348612"
     ry="1.0742064e-13" />
  <path
     d="M19 3H5c-1.103 0-2 .897-2 2v14c0 1.103.897 2 2 2h14c1.103 0 2-.897 2-2V5c0-1.103-.897-2-2-2zM8 9.5a1.5 1.5 0 1 1 .001-3.001A1.5 1.5 0 0 1 8 9.5zm4 4a1.5 1.5 0 1 1 .001-3.001A1.5 1.5 0 0 1 12 13.5zm4 4a1.5 1.5 0 1 1 .001-3.001A1.5 1.5 0 0 1 16 17.5z"
     id="path234"
     style="fill:#0d4136;fill-opacity:0.99607843" />
</svg>
